<svg width="40" height="40" viewBox="-2 -2 346 346" fill="none" xmlns="http://www.w3.org/2000/svg">
    <g clip-path="url(#clip0_33_115)" transform="translate(2,2)">
        <rect width="342" height="342" rx="48" fill="url(#paint0_linear_33_115)"/>
        <rect opacity="0.2" width="342" height="342" fill="url(#paint1_radial_33_115)"/>
        <rect x="75" y="75" width="192" height="192" rx="32" fill="#221E10"/>
        <rect x="77" y="77" width="188" height="188" rx="30" stroke="white" stroke-opacity="0.2" stroke-width="4"/>
        <g filter="url(#filter0_d_33_115)">
            <rect x="75" y="75" width="192" height="192" rx="32" fill="white" fill-opacity="0.01" shape-rendering="crispEdges"/>
        </g>
        <rect x="152.14" y="161.25" width="24.8" height="35.75" rx="2" fill="#F2B90D" fill-opacity="0.8"/>
        <rect x="165.05" y="142.89" width="37.69" height="54.11" rx="2" fill="#3B82F6"/>
        <rect x="107" y="124.53" width="11.89" height="17.36" fill="#A855F7"/>
        <rect x="107" y="161.25" width="11.89" height="17.38" fill="#F2B90D"/>
        <rect x="107" y="97" width="11.89" height="17.36" fill="#3B82F6"/>
        <path d="M186 227.5V222.5H196V227.5H186V227.5M189 245L181 239L184 235L192 241L189 245V245M184 215L181 211L189 205L192 209L184 215V215M153.5 242.5V232.5H151C149.625 232.5 148.448 232.01 147.469 231.031C146.49 230.052 146 228.875 146 227.5V222.5C146 221.125 146.49 219.948 147.469 218.969C148.448 217.99 149.625 217.5 151 217.5H161L173.5 210V240L161 232.5H158.5V242.5H153.5V242.5M168.5 231.125V218.875L162.375 222.5H151V222.5V222.5V227.5V227.5V227.5H162.375L168.5 231.125V231.125M176 233.375V216.625C177.125 217.625 178.031 218.844 178.719 220.281C179.406 221.719 179.75 223.292 179.75 225C179.75 226.708 179.406 228.281 178.719 229.719C178.031 231.156 177.125 232.375 176 233.375V233.375M159.75 225V225V225V225V225V225V225V225V225V225V225V225" fill="white"/>
        <rect x="248.36" y="63" width="30.64" height="24" rx="12" fill="#F2B90D"/>
        <path d="M259.06 79L256.516 70.276H258.598L259.87 75.364L260.326 77.392H260.368L260.812 75.364L262.09 70.276H264.172L261.628 79H259.06ZM264.412 79C264.676 78.668 264.93 78.346 265.174 78.034C265.418 77.722 265.655 77.418 265.885 77.122C266.115 76.826 266.337 76.538 266.551 76.258C266.765 75.978 266.974 75.706 267.178 75.442C267.558 74.946 267.864 74.545 268.096 74.239C268.328 73.933 268.498 73.667 268.606 73.441C268.714 73.215 268.768 72.98 268.768 72.736C268.768 72.452 268.687 72.205 268.525 71.995C268.363 71.785 268.07 71.682 267.646 71.686C267.382 71.686 267.152 71.748 266.956 71.872C266.76 71.996 266.622 72.187 266.542 72.445C266.462 72.703 266.462 73.032 266.542 73.432H264.814C264.71 72.644 264.769 72.005 264.991 71.515C265.213 71.025 265.557 70.666 266.023 70.438C266.489 70.21 267.036 70.096 267.664 70.096C268.296 70.096 268.824 70.198 269.248 70.402C269.672 70.606 269.99 70.889 270.202 71.251C270.414 71.613 270.52 72.032 270.52 72.508C270.52 72.968 270.446 73.385 270.298 73.759C270.15 74.133 269.967 74.475 269.749 74.785C269.531 75.095 269.318 75.39 269.11 75.67C268.942 75.89 268.774 76.111 268.606 76.333C268.438 76.555 268.27 76.776 268.102 76.996C267.934 77.216 267.766 77.436 267.598 77.656C267.73 77.52 267.88 77.431 268.048 77.389C268.216 77.347 268.45 77.326 268.75 77.326H270.496V79H264.412Z" fill="#221E10"/>
    </g>
</svg>